<svg width="77" height="79" viewBox="0 0 77 79" fill="none" xmlns="http://www.w3.org/2000/svg">
<path fill-rule="evenodd" clip-rule="evenodd" d="M61.3733 10.7467C43.3733 -7.03374 28.0412 1.05257 25.3734 14.5987C22.7055 28.1449 -2.07757 30.8496 0.982379 46.8496C4.04233 62.8496 37.3733 53.3496 37.3733 67.8496C37.3733 82.3496 75.9108 81.8496 75.9108 62.8496C75.9108 43.8496 79.3734 28.5271 61.3733 10.7467Z" fill="white" fill-opacity="0.2"/>
<mask id="mask0" mask-type="alpha" maskUnits="userSpaceOnUse" x="0" y="0" width="77" height="78">
<path fill-rule="evenodd" clip-rule="evenodd" d="M61.3733 10.7467C43.3733 -7.03374 28.0412 1.05257 25.3734 14.5987C22.7055 28.1449 -2.07757 30.8496 0.982379 46.8496C4.04233 62.8496 37.3733 53.3496 37.3733 67.8496C37.3733 82.3496 75.9108 81.8496 75.9108 62.8496C75.9108 43.8496 79.3734 28.5271 61.3733 10.7467Z" fill="white"/>
</mask>
<g mask="url(#mask0)">
<rect x="0.721191" y="0.514893" width="76" height="78" fill="#FFB53F"/>
</g>
<path fill-rule="evenodd" clip-rule="evenodd" d="M50.7212 19.5149C50.7212 23.9329 54.3032 27.5149 58.7212 27.5149C63.1392 27.5149 66.7212 23.9329 66.7212 19.5149C66.7212 15.0969 63.1392 11.5149 58.7212 11.5149C54.3032 11.5149 50.7212 15.0969 50.7212 19.5149Z" stroke="#333333" stroke-width="3" stroke-linecap="round" stroke-linejoin="round"/>
<path fill-rule="evenodd" clip-rule="evenodd" d="M50.7212 59.5149C50.7212 63.9329 54.3032 67.5149 58.7212 67.5149C63.1392 67.5149 66.7212 63.9329 66.7212 59.5149C66.7212 55.0969 63.1392 51.5149 58.7212 51.5149C54.3032 51.5149 50.7212 55.0969 50.7212 59.5149Z" stroke="#333333" stroke-width="3" stroke-linecap="round" stroke-linejoin="round"/>
<path fill-rule="evenodd" clip-rule="evenodd" d="M10.7212 39.5149C10.7212 45.5909 15.6472 50.5149 21.7212 50.5149C27.7952 50.5149 32.7212 45.5909 32.7212 39.5149C32.7212 33.4389 27.7952 28.5149 21.7212 28.5149C15.6472 28.5149 10.7212 33.4389 10.7212 39.5149Z" stroke="#333333" stroke-width="3" stroke-linecap="round" stroke-linejoin="round"/>
<path d="M16.7212 39.5149C16.7212 36.7589 18.9652 34.5149 21.7212 34.5149" stroke="#FEEED3" stroke-width="3" stroke-linecap="round" stroke-linejoin="round"/>
<path d="M31.7212 44.5149L51.7292 55.6309" stroke="#333333" stroke-width="3" stroke-linecap="round" stroke-linejoin="round"/>
<path d="M51.7289 23.3997L31.7209 34.5157" stroke="#333333" stroke-width="3" stroke-linecap="round" stroke-linejoin="round"/>
</svg>
